<svg width="30" height="30" viewBox="0 0 30 30" fill="none" xmlns="http://www.w3.org/2000/svg">
<path fill-rule="evenodd" clip-rule="evenodd" d="M4.24221 2.75638C4.432 2.61157 4.65928 2.52414 4.89719 2.50442C5.13509 2.48471 5.37367 2.53353 5.58471 2.64512L26.8347 13.8957C27.0356 14.0019 27.2038 14.161 27.3211 14.3557C27.4384 14.5504 27.5003 14.7734 27.5003 15.0007C27.5003 15.228 27.4384 15.451 27.3211 15.6458C27.2038 15.8405 27.0356 15.9995 26.8347 16.1058L5.58471 27.3563C5.37379 27.4679 5.13535 27.5168 4.89755 27.4972C4.65974 27.4776 4.43252 27.3904 4.24271 27.2458C4.0529 27.1012 3.90844 26.9053 3.82639 26.6812C3.74435 26.4571 3.72815 26.2142 3.77971 25.9813L6.21971 15.0007L3.77971 4.02144C3.72798 3.78842 3.74405 3.54546 3.82601 3.32129C3.90796 3.09711 4.05239 2.90108 4.24221 2.75638ZM8.50221 16.2508L6.80721 23.8799L21.2172 16.2508H8.50221ZM21.2172 13.7507H8.50221L6.80721 6.12154L21.2172 13.7507Z" fill="white"/>
</svg>
