<svg width="103" height="103" viewBox="0 0 103 103" fill="none" xmlns="http://www.w3.org/2000/svg">
<path fill-rule="evenodd" clip-rule="evenodd" d="M0 51.5C0 23.0573 23.0573 0 51.5 0C79.9427 0 103 23.0573 103 51.5C103 79.9427 79.9427 103 51.5 103C23.0573 103 0 79.9427 0 51.5ZM51.5 25.75C65.6625 25.75 77.25 37.3375 77.25 51.5C77.25 64.375 67.9156 75.3187 55.0406 77.25V58.9031H61.1562L62.4437 51.5H55.3625V46.6719C55.3625 44.7406 56.3281 42.8094 59.5469 42.8094H62.7656V36.3719C62.7656 36.3719 59.8688 35.7281 56.9719 35.7281C51.1781 35.7281 47.3156 39.2687 47.3156 45.7062V51.5H40.8781V58.9031H47.3156V76.9281C35.0844 74.9969 25.75 64.375 25.75 51.5C25.75 37.3375 37.3375 25.75 51.5 25.75Z" fill="white"/>
</svg>
