<svg width="103" height="103" viewBox="0 0 103 103" fill="none" xmlns="http://www.w3.org/2000/svg">
<path d="M51.5 60.5125C46.6719 60.5125 42.4875 56.65 42.4875 51.5C42.4875 46.6719 46.35 42.4875 51.5 42.4875C56.3281 42.4875 60.5125 46.35 60.5125 51.5C60.5125 56.3281 56.3281 60.5125 51.5 60.5125Z" fill="white"/>
<path fill-rule="evenodd" clip-rule="evenodd" d="M62.4437 29.6125H40.5563C37.9813 29.9344 36.6938 30.2562 35.7281 30.5781C34.4406 30.9 33.475 31.5437 32.5094 32.5094C31.7453 33.2735 31.3843 34.0375 30.9479 34.9611C30.8329 35.2045 30.7124 35.4596 30.5781 35.7281C30.5283 35.8775 30.4708 36.0346 30.4092 36.2029C30.0725 37.1229 29.6125 38.3796 29.6125 40.5562V62.4437C29.9344 65.0187 30.2562 66.3062 30.5781 67.2719C30.9 68.5594 31.5438 69.525 32.5094 70.4906C33.2735 71.2547 34.0376 71.6157 34.9611 72.0521C35.2047 72.1672 35.4594 72.2875 35.7281 72.4219C35.8775 72.4717 36.0346 72.5292 36.2029 72.5908C37.1229 72.9275 38.3796 73.3875 40.5563 73.3875H62.4437C65.0187 73.0656 66.3063 72.7437 67.2719 72.4219C68.5594 72.1 69.525 71.4562 70.4906 70.4906C71.2547 69.7265 71.6157 68.9624 72.0521 68.0389C72.1672 67.7953 72.2875 67.5405 72.4219 67.2719C72.4717 67.1225 72.5292 66.9654 72.5908 66.797C72.9275 65.8771 73.3875 64.6204 73.3875 62.4437V40.5562C73.0656 37.9812 72.7438 36.6937 72.4219 35.7281C72.1 34.4406 71.4562 33.475 70.4906 32.5094C69.7265 31.7453 68.9624 31.3843 68.0389 30.9479C67.7957 30.833 67.5401 30.7122 67.2719 30.5781C67.1225 30.5283 66.9654 30.4708 66.7971 30.4092C65.8771 30.0725 64.6204 29.6125 62.4437 29.6125ZM51.5 37.6594C43.775 37.6594 37.6594 43.775 37.6594 51.5C37.6594 59.225 43.775 65.3406 51.5 65.3406C59.225 65.3406 65.3406 59.225 65.3406 51.5C65.3406 43.775 59.225 37.6594 51.5 37.6594ZM68.8812 37.3375C68.8812 39.1152 67.4402 40.5562 65.6625 40.5562C63.8848 40.5562 62.4437 39.1152 62.4437 37.3375C62.4437 35.5598 63.8848 34.1187 65.6625 34.1187C67.4402 34.1187 68.8812 35.5598 68.8812 37.3375Z" fill="white"/>
<path fill-rule="evenodd" clip-rule="evenodd" d="M0 51.5C0 23.0573 23.0573 0 51.5 0C79.9427 0 103 23.0573 103 51.5C103 79.9427 79.9427 103 51.5 103C23.0573 103 0 79.9427 0 51.5ZM40.5563 24.7844H62.4437C65.3406 25.1062 67.2719 25.4281 68.8812 26.0719C70.8125 27.0375 72.1 27.6812 73.7094 29.2906C75.3187 30.9 76.2844 32.5094 76.9281 34.1187C77.5719 35.7281 78.2156 37.6594 78.2156 40.5562V62.4437C77.8937 65.3406 77.5719 67.2719 76.9281 68.8812C75.9625 70.8125 75.3187 72.1 73.7094 73.7094C72.1 75.3187 70.4906 76.2844 68.8812 76.9281C67.2719 77.5719 65.3406 78.2156 62.4437 78.2156H40.5563C37.6594 77.8937 35.7281 77.5719 34.1188 76.9281C32.1875 75.9625 30.9 75.3187 29.2906 73.7094C27.6813 72.1 26.7156 70.4906 26.0719 68.8812C25.4281 67.2719 24.7844 65.3406 24.7844 62.4437V40.5562C25.1062 37.6594 25.4281 35.7281 26.0719 34.1187C27.0375 32.1875 27.6813 30.9 29.2906 29.2906C30.9 27.6812 32.5094 26.7156 34.1188 26.0719C35.7281 25.4281 37.6594 24.7844 40.5563 24.7844Z" fill="white"/>
</svg>
