<svg width="18" height="19" viewBox="0 0 18 19" fill="none" xmlns="http://www.w3.org/2000/svg">
<path fill-rule="evenodd" clip-rule="evenodd" d="M12.7575 1.37003C13.3148 0.81295 14.0705 0.5 14.8585 0.5C15.6465 0.5 16.4023 0.81295 16.9595 1.37003L17.1299 1.5404C17.687 2.09765 18 2.85334 18 3.64129C18 4.42923 17.687 5.18492 17.1299 5.74217L15.4093 7.46468L5.65316 17.2193C5.52636 17.3461 5.3675 17.4362 5.19353 17.4798L1.23125 18.4703C1.06524 18.5119 0.891298 18.5098 0.726366 18.4641C0.561434 18.4185 0.41114 18.3309 0.290132 18.2099C0.169123 18.0889 0.0815287 17.9386 0.0358845 17.7737C-0.00975978 17.6087 -0.0118966 17.4348 0.0296824 17.2688L1.02025 13.3068C1.06388 13.1328 1.15393 12.9739 1.28077 12.8472L11.0934 3.03509L12.7575 1.37003ZM15.5589 2.77062C15.3731 2.58493 15.1212 2.48061 14.8585 2.48061C14.5959 2.48061 14.344 2.58493 14.1582 2.77062L13.1815 3.74727L14.7218 5.34894L15.7293 4.34158C15.915 4.15583 16.0193 3.90394 16.0193 3.64129C16.0193 3.37864 15.915 3.12674 15.7293 2.94099L15.5589 2.77062ZM13.3202 6.74953L11.7798 5.14885L2.87559 14.0536L2.35158 16.1476L4.44664 15.6236L13.3202 6.74953Z" fill="black"/>
</svg>
