<svg width="103" height="103" viewBox="0 0 103 103" fill="none" xmlns="http://www.w3.org/2000/svg">
<path fill-rule="evenodd" clip-rule="evenodd" d="M51.5 103C23.0573 103 0 79.9427 0 51.5C0 23.0573 23.0573 0 51.5 0C79.9427 0 103 23.0573 103 51.5C103 79.9427 79.9427 103 51.5 103ZM53.7269 38.6487C49.1144 40.5672 39.896 44.538 26.0716 50.5611C23.8267 51.4538 22.6508 52.3271 22.5437 53.1811C22.3628 54.6242 24.1701 55.1925 26.6311 55.9664C26.9659 56.0716 27.3127 56.1807 27.6683 56.2963C30.0896 57.0834 33.3466 58.0041 35.0398 58.0407C36.5757 58.0739 38.29 57.4407 40.1825 56.1411C53.0991 47.4221 59.7667 43.015 60.1853 42.92C60.4806 42.853 60.8898 42.7687 61.1671 43.0152C61.4444 43.2616 61.4172 43.7284 61.3878 43.8536C61.2087 44.6168 54.1146 51.2122 50.4433 54.6253C49.2988 55.6894 48.487 56.4441 48.321 56.6165C47.9493 57.0026 47.5704 57.3679 47.2062 57.7189C44.9568 59.8874 43.27 61.5135 47.2996 64.169C49.2361 65.4451 50.7857 66.5004 52.3316 67.5532C54.0199 68.7029 55.7038 69.8497 57.8826 71.2778C58.4377 71.6417 58.9678 72.0196 59.4841 72.3878C61.4489 73.7885 63.2141 75.0469 65.3949 74.8462C66.662 74.7296 67.9709 73.5381 68.6357 69.9844C70.2067 61.5859 73.2947 43.3891 74.0084 35.8906C74.0709 35.2336 73.9922 34.3928 73.9291 34.0237C73.8659 33.6546 73.7339 33.1288 73.2541 32.7395C72.686 32.2785 71.8088 32.1812 71.4165 32.1878C69.6329 32.2196 66.8964 33.1711 53.7269 38.6487Z" fill="white"/>
</svg>
