<svg width="31" height="32" viewBox="0 0 31 32" fill="none" xmlns="http://www.w3.org/2000/svg">
<path fill-rule="evenodd" clip-rule="evenodd" d="M10.3333 12.1256C10.3333 10.7552 10.8777 9.44098 11.8466 8.47199C12.8156 7.50301 14.1297 6.95864 15.5 6.95864C16.8703 6.95864 18.1844 7.50301 19.1534 8.47199C20.1223 9.44098 20.6667 10.7552 20.6667 12.1256C20.6667 13.4959 20.1223 14.8101 19.1534 15.7791C18.1844 16.7481 16.8703 17.2925 15.5 17.2925C14.1297 17.2925 12.8156 16.7481 11.8466 15.7791C10.8777 14.8101 10.3333 13.4959 10.3333 12.1256ZM20.4393 18.0972C21.6684 17.0804 22.5538 15.7092 22.9747 14.1706C23.3956 12.632 23.3315 11.0009 22.7912 9.5001C22.2509 7.99925 21.2607 6.70167 19.9557 5.78445C18.6507 4.86723 17.0944 4.37503 15.4994 4.37503C13.9043 4.37503 12.3481 4.86723 11.043 5.78445C9.73804 6.70167 8.74782 7.99925 8.20752 9.5001C7.66721 11.0009 7.60314 12.632 8.02405 14.1706C8.44496 15.7092 9.33034 17.0804 10.5594 18.0972C6.44025 19.5478 3.875 22.7785 3.875 26.3346C3.875 26.6772 4.01109 27.0057 4.25332 27.248C4.49555 27.4902 4.8241 27.6263 5.16667 27.6263C5.50924 27.6263 5.83778 27.4902 6.08001 27.248C6.32225 27.0057 6.45833 26.6772 6.45833 26.3346C6.45833 23.4024 9.50021 19.8759 15.5 19.8759C21.4998 19.8759 24.5417 23.4024 24.5417 26.3346C24.5417 26.6772 24.6778 27.0057 24.92 27.248C25.1622 27.4902 25.4908 27.6263 25.8333 27.6263C26.1759 27.6263 26.5044 27.4902 26.7467 27.248C26.9889 27.0057 27.125 26.6772 27.125 26.3346C27.125 22.7785 24.5623 19.5478 20.4393 18.0972Z" fill="white"/>
</svg>
