<svg width="103" height="103" viewBox="0 0 103 103" fill="none" xmlns="http://www.w3.org/2000/svg">
<path d="M59.8688 51.5L46.35 43.775V59.225L59.8688 51.5Z" fill="white"/>
<path fill-rule="evenodd" clip-rule="evenodd" d="M0 51.5C0 23.0573 23.0573 0 51.5 0C79.9427 0 103 23.0573 103 51.5C103 79.9427 79.9427 103 51.5 103C23.0573 103 0 79.9427 0 51.5ZM71.4563 34.4406C73.7094 35.0844 75.3188 36.6938 75.9625 38.9469C77.25 43.1313 77.25 51.5 77.25 51.5C77.25 51.5 77.25 59.8688 76.2844 64.0531C75.6407 66.3063 74.0312 67.9156 71.7781 68.5594C67.5937 69.525 51.5 69.525 51.5 69.525C51.5 69.525 35.0844 69.525 31.2219 68.5594C28.9687 67.9156 27.3594 66.3063 26.7156 64.0531C25.75 59.8688 25.75 51.5 25.75 51.5C25.75 51.5 25.75 43.1313 26.3937 38.9469C27.0375 36.6938 28.6469 35.0844 30.9 34.4406C35.0844 33.475 51.1781 33.475 51.1781 33.475C51.1781 33.475 67.5938 33.475 71.4563 34.4406Z" fill="white"/>
</svg>
